HIERARCHY
ROOT Hips
{
	OFFSET 48.141399 -13.747215 92.443001
	CHANNELS 6 Xposition Yposition Zposition Xrotation Yrotation Zrotation
	JOINT spine
	{
		OFFSET 0.000000 -0.429886 7.475601
		CHANNELS 3 Xrotation Yrotation Zrotation
		JOINT spine1
		{
			OFFSET 0.000000 -0.000002 9.923012
			CHANNELS 3 Xrotation Yrotation Zrotation
			JOINT spine2
			{
				OFFSET 0.000000 -0.000001 9.508041
				CHANNELS 3 Xrotation Yrotation Zrotation
				JOINT Neck
				{
					OFFSET 0.000000 -1.163845 24.411102
					CHANNELS 3 Xrotation Yrotation Zrotation
					JOINT Head
					{
						OFFSET 0.000000 -0.000001 7.375229
						CHANNELS 3 Xrotation Yrotation Zrotation
						End Site
						{
							OFFSET 0.000000 5.887407 17.852203
						}
					}
				}
				JOINT RightShoulder
				{
					OFFSET -4.003559 0.557467 10.267899
					CHANNELS 3 Xrotation Yrotation Zrotation
					JOINT RightArm
					{
						OFFSET 0.000000 -0.000002 13.467300
						CHANNELS 3 Xrotation Yrotation Zrotation
						JOINT RightArmRoll
						{
							OFFSET 0.000000 -0.000002 6.798584
							CHANNELS 3 Xrotation Yrotation Zrotation
							JOINT RightForeArm
							{
								OFFSET 0.000000 -0.000003 19.801804
								CHANNELS 3 Xrotation Yrotation Zrotation
								JOINT RightForeArmRoll
								{
									OFFSET 0.000000 -0.000001 7.629044
									CHANNELS 3 Xrotation Yrotation Zrotation
									JOINT RightHand
									{
										OFFSET 0.000000 -0.000003 15.309799
										CHANNELS 3 Xrotation Yrotation Zrotation
										End Site
										{
											OFFSET 0.000000 0.000000 0.100006
										}
									}
								}
							}
						}
					}
				}
				JOINT LeftShoulder
				{
					OFFSET 4.003559 0.557467 10.267899
					CHANNELS 3 Xrotation Yrotation Zrotation
					JOINT LeftArm
					{
						OFFSET 0.000000 -0.000002 13.467300
						CHANNELS 3 Xrotation Yrotation Zrotation
						JOINT LeftArmRoll
						{
							OFFSET 0.000000 -0.000002 6.798584
							CHANNELS 3 Xrotation Yrotation Zrotation
							JOINT LeftForeArm
							{
								OFFSET 0.000000 -0.000003 19.801804
								CHANNELS 3 Xrotation Yrotation Zrotation
								JOINT LeftForeArmRoll
								{
									OFFSET 0.000000 -0.000001 7.629044
									CHANNELS 3 Xrotation Yrotation Zrotation
									JOINT LeftHand
									{
										OFFSET 0.000000 -0.000003 15.309799
										CHANNELS 3 Xrotation Yrotation Zrotation
										End Site
										{
											OFFSET 0.000000 0.000000 0.100006
										}
									}
								}
							}
						}
					}
				}
			}
		}
	}
	JOINT RightUpLeg
	{
		OFFSET -6.626091 1.019270 -1.215050
		CHANNELS 3 Xrotation Yrotation Zrotation
		JOINT RightUpLegRoll
		{
			OFFSET 0.000000 -0.000003 17.951698
			CHANNELS 3 Xrotation Yrotation Zrotation
			JOINT RightLeg
			{
				OFFSET 0.000000 0.000004 -22.230400
				CHANNELS 3 Xrotation Yrotation Zrotation
				JOINT RightLegRoll
				{
					OFFSET 0.000000 -0.000004 22.303200
					CHANNELS 3 Xrotation Yrotation Zrotation
					JOINT RightFoot
					{
						OFFSET 0.000000 -0.000003 18.563599
						CHANNELS 3 Xrotation Yrotation Zrotation
						JOINT RightToeBase
						{
							OFFSET 0.000000 -0.000002 15.518303
							CHANNELS 3 Xrotation Yrotation Zrotation
							End Site
							{
								OFFSET 0.006577 0.866261 7.515396
							}
						}
					}
				}
			}
		}
	}
	JOINT LeftUpLeg
	{
		OFFSET 6.626091 1.019270 -1.215050
		CHANNELS 3 Xrotation Yrotation Zrotation
		JOINT LeftUpLegRoll
		{
			OFFSET 0.000000 -0.000003 17.951797
			CHANNELS 3 Xrotation Yrotation Zrotation
			JOINT LeftLeg
			{
				OFFSET 0.000000 -0.000003 22.230301
				CHANNELS 3 Xrotation Yrotation Zrotation
				JOINT LeftLegRoll
				{
					OFFSET 0.000000 -0.000004 22.509293
					CHANNELS 3 Xrotation Yrotation Zrotation
					JOINT LeftFoot
					{
						OFFSET 0.000000 -0.000003 18.357498
						CHANNELS 3 Xrotation Yrotation Zrotation
						JOINT LeftToeBase
						{
							OFFSET 0.000000 -0.000003 15.518295
							CHANNELS 3 Xrotation Yrotation Zrotation
							End Site
							{
								OFFSET -0.029476 0.866262 7.515396
							}
						}
					}
				}
			}
		}
	}
}
MOTION
Frames: 9
Frame Time: 0.041667
49.572201 -13.985410 92.869698 -6.321153 2.424578 1.226222 -1.497023 -0.324900 0.131310 1.009486 -0.653305 0.254367 2.654611 -0.650235 0.262177 11.905841 3.562175 -3.561781 -1.441680 -4.456545 -3.374126 -7.171945 -72.286774 -9.443057 127.396497 -46.638926 76.191552 -0.000003 0.000003 -0.000001 81.799616 2.907358 -4.348446 0.000002 -0.000009 -3.000002 -5.000232 -7.999124 0.000121 -3.288972 70.823222 5.052042 -55.167810 135.046528 80.433776 0.000000 0.000003 0.000018 78.323507 5.495958 1.513591 0.000001 0.000008 3.004369 -5.000166 8.000098 0.000008 0.156403 174.130031 -3.525574 -179.999991 0.000005 -1.197000 167.092054 -2.251692 -0.779894 -0.000004 0.000000 0.262919 72.459045 6.781202 2.197398 25.456957 -7.355614 0.000010 -3.837525 171.433964 -4.358545 -0.000005 -0.000004 -1.265810 -22.939773 4.584691 1.657137 0.000002 -0.000001 -0.450634 69.482053 -6.712937 -2.584929 32.056311 7.231982 -1.512761 
49.571896 -13.984309 92.869507 -6.332798 2.423469 1.234810 -1.496423 -0.325450 0.132574 1.010706 -0.654290 0.257159 2.655822 -0.651187 0.264979 11.934857 3.566394 -3.569693 -1.426078 -4.471060 -3.379514 -7.191182 -72.266250 -9.462719 127.309371 -46.622441 76.298629 -0.000001 0.000002 -0.000004 81.818440 2.902056 -4.364806 0.000003 -0.000012 -3.000001 -5.000233 -7.999122 0.000120 -3.233199 70.860849 4.993968 -55.302430 135.055257 80.185376 -0.000004 0.000002 0.000016 78.320420 5.475956 1.520496 0.000001 0.000008 3.004372 -5.000166 8.000096 0.000009 0.175511 174.131028 -3.524545 -179.999991 0.000005 -1.197000 167.104867 -2.252780 -0.779613 -0.000004 -0.000000 0.262786 72.457754 6.781196 2.197376 25.456953 -7.355613 0.000010 -3.825339 171.432858 -4.360394 -0.000005 -0.000005 -1.265790 -22.939674 4.584724 1.657450 0.000004 -0.000001 -0.450768 69.483391 -6.712831 -2.584928 32.054272 7.231798 -1.513495 
49.561497 -13.980312 92.867607 -6.345423 2.421869 1.243317 -1.495553 -0.326050 0.133863 1.012445 -0.655366 0.260026 2.657572 -0.652227 0.267859 11.961899 3.573231 -3.577676 -1.406943 -4.487283 -3.384877 -7.210055 -72.243416 -9.481827 127.221480 -46.602978 76.408889 -0.000003 0.000002 -0.000003 81.838691 2.895950 -4.381254 0.000001 -0.000011 -3.000001 -5.000234 -7.999121 0.000122 -3.177149 70.900171 4.935783 -55.440355 135.064423 79.941832 -0.000004 0.000002 0.000015 78.316219 5.455890 1.526936 0.000000 0.000008 3.004372 -5.000165 8.000099 0.000008 0.195895 174.132026 -3.523267 -179.999991 0.000005 -1.197000 167.118364 -2.252902 -0.779082 -0.000003 -0.000000 0.262650 72.456245 6.781206 2.197569 25.456957 -7.355614 0.000010 -3.811647 171.432721 -4.362044 -0.000004 -0.000005 -1.265780 -22.938871 4.584778 1.657761 0.000003 -0.000001 -0.450895 69.484423 -6.712778 -2.584857 32.052336 7.231620 -1.514156 
49.564495 -13.983711 92.863708 -6.358854 2.419809 1.251818 -1.494444 -0.326705 0.135190 1.014677 -0.656545 0.262985 2.659793 -0.653369 0.270832 11.987177 3.582613 -3.585760 -1.384830 -4.505150 -3.390237 -7.228720 -72.218069 -9.500525 127.134095 -46.580227 76.524299 -0.000002 0.000000 -0.000003 81.860746 2.889287 -4.398091 0.000001 -0.000011 -3.000003 -5.000234 -7.999123 0.000119 -3.121347 70.941063 4.878018 -55.581276 135.073821 79.703540 -0.000002 0.000004 0.000018 78.310776 5.435698 1.532730 -0.000001 0.000006 3.004371 -5.000167 8.000097 0.000008 0.217287 174.135045 -3.521752 -179.999991 0.000005 -1.197000 167.132065 -2.253997 -0.778766 -0.000004 0.000000 0.262513 72.454749 6.781213 2.197560 25.456960 -7.355614 0.000009 -3.796691 171.432571 -4.363372 -0.000002 -0.000005 -1.265770 -22.937269 4.584795 1.658036 0.000003 -0.000001 -0.451015 69.485345 -6.712683 -2.584885 32.050502 7.231429 -1.514780 
49.564995 -13.988711 92.866310 -6.372943 2.417317 1.260390 -1.493124 -0.327420 0.136567 1.017338 -0.657841 0.266054 2.662464 -0.654626 0.273916 12.010781 3.594479 -3.593950 -1.360342 -4.524590 -3.395654 -7.247360 -72.190209 -9.519037 127.046313 -46.555881 76.643144 -0.000001 0.000001 -0.000006 81.885027 2.882249 -4.415401 0.000000 -0.000012 -3.000000 -5.000233 -7.999120 0.000119 -3.066194 70.983431 4.821127 -55.723996 135.083725 79.469975 -0.000002 0.000002 0.000014 78.303672 5.415390 1.538085 0.000003 0.000007 3.004371 -5.000165 8.000102 0.000010 0.239415 174.137039 -3.519995 -179.999991 0.000005 -1.197000 167.145876 -2.254121 -0.778223 -0.000004 -0.000000 0.262374 72.453233 6.781191 2.197750 25.456957 -7.355613 0.000010 -3.780705 171.434401 -4.364464 -0.000004 -0.000005 -1.265750 -22.935056 4.584722 1.658268 0.000003 -0.000001 -0.451126 69.486055 -6.712579 -2.584922 32.048562 7.231258 -1.515366 
49.563396 -13.989516 92.868408 -6.387535 2.414436 1.269108 -1.491602 -0.328201 0.138008 1.020388 -0.659269 0.269248 2.665504 -0.656014 0.277128 12.032818 3.608761 -3.602271 -1.334070 -4.545563 -3.401155 -7.266150 -72.159712 -9.537560 126.960308 -46.529072 76.768540 -0.000003 0.000003 -0.000003 81.911788 2.875055 -4.433092 0.000001 -0.000010 -3.000002 -5.000233 -7.999121 0.000121 -3.012183 71.027062 4.765634 -55.868816 135.093260 79.242632 -0.000002 0.000003 0.000015 78.294732 5.394863 1.543003 0.000002 0.000008 3.004371 -5.000168 8.000102 0.000008 0.262008 174.140058 -3.518010 -179.999991 0.000005 -1.197000 167.159495 -2.254243 -0.777687 -0.000004 -0.000001 0.262233 72.451826 6.781163 2.197831 25.456959 -7.355615 0.000009 -3.763948 171.435248 -4.365086 -0.000004 -0.000004 -1.265740 -22.932237 4.584485 1.658435 0.000002 -0.000001 -0.451227 69.486554 -6.712502 -2.584877 32.046537 7.231084 -1.515945 
49.559696 -13.988312 92.867607 -6.402475 2.411196 1.278042 -1.489912 -0.329051 0.139523 1.023778 -0.660844 0.272586 2.668896 -0.657544 0.280483 12.053487 3.625395 -3.610756 -1.306579 -4.567997 -3.406787 -7.285317 -72.126593 -9.556314 126.874958 -46.501369 76.898648 -0.000002 -0.000002 -0.000004 81.941431 2.867886 -4.451241 0.000001 -0.000011 -2.999999 -5.000236 -7.999122 0.000120 -2.959764 71.071745 4.712018 -56.015543 135.102289 79.021983 -0.000002 0.000004 0.000018 78.283660 5.374147 1.547399 0.000001 0.000009 3.004371 -5.000167 8.000105 0.000007 0.284791 174.143063 -3.515790 -179.999991 0.000005 -1.197000 167.172596 -2.254360 -0.777171 -0.000003 0.000000 0.262092 72.450439 6.781194 2.197920 25.456955 -7.355613 0.000009 -3.746645 171.438062 -4.365375 -0.000004 -0.000004 -1.265730 -22.929010 4.584031 1.658531 0.000002 -0.000001 -0.451325 69.486854 -6.712447 -2.584849 32.044399 7.230910 -1.516535 
49.560394 -13.991013 92.868408 -6.417597 2.407636 1.287287 -1.488074 -0.329977 0.141129 1.027459 -0.662577 0.276084 2.672577 -0.659233 0.284002 12.072785 3.644305 -3.619387 -1.278475 -4.591831 -3.412588 -7.305032 -72.090721 -9.575513 126.790236 -46.473919 77.033237 -0.000003 0.000000 -0.000005 81.974250 2.861005 -4.470257 0.000004 -0.000011 -3.000007 -5.000235 -7.999124 0.000122 -2.909422 71.117384 4.660804 -56.162976 135.111073 78.807508 -0.000005 0.000003 0.000016 78.270109 5.353215 1.551287 -0.000001 0.000009 3.004371 -5.000165 8.000098 0.000010 0.307492 174.147093 -3.513336 -179.999991 0.000005 -1.197000 167.185095 -2.255444 -0.776901 -0.000004 0.000000 0.261950 72.449258 6.781188 2.197991 25.456955 -7.355614 0.000010 -3.729051 171.440876 -4.365157 -0.000005 -0.000005 -1.265710 -22.925272 4.583309 1.658524 0.000004 -0.000001 -0.451411 69.486930 -6.712385 -2.584934 32.042156 7.230734 -1.517167 
49.558495 -13.996614 92.869408 -6.432752 2.403788 1.296898 -1.486124 -0.330982 0.142834 1.031379 -0.664482 0.279757 2.676510 -0.661092 0.287698 12.091110 3.665436 -3.628231 -1.250341 -4.617005 -3.418602 -7.325470 -72.052000 -9.595329 126.707386 -46.446410 77.173939 -0.000003 0.000001 -0.000004 82.010628 2.854571 -4.489819 0.000004 -0.000011 -3.000002 -5.000235 -7.999120 0.000120 -2.861656 71.163966 4.612528 -56.310733 135.119351 78.599618 -0.000006 0.000005 0.000018 78.253751 5.332052 1.554779 0.000002 0.000008 3.004369 -5.000167 8.000103 0.000009 0.329843 174.151095 -3.510672 -179.999991 0.000005 -1.197000 167.196706 -2.255548 -0.776444 -0.000004 -0.000000 0.261805 72.448288 6.781203 2.198053 25.456955 -7.355615 0.000011 -3.711418 171.443718 -4.364382 -0.000004 -0.000005 -1.265700 -22.921224 4.582238 1.658405 0.000003 -0.000001 -0.451492 69.486909 -6.712312 -2.584922 32.039714 7.230558 -1.517853 
